# xmcd CD database file
#
# Track frame offsets:
#	150
#	39453
#	92392
#	134885
#	156780
#	173104
#	242451
#
# Disc length: 3382 seconds
#
# Revision: 0
# Processed by: cddbd v1.5.2PL0 Copyright (c) Steve Scherf et al.
# Submitted via: CDex 1.51
#
DISCID=510d3407
DTITLE=Michigan State University Jazz Orchestra II - Concert October 22nd 2007
DYEAR=2007
DGENRE=Jazz
TTITLE0=Ain't Nothing Nu
TTITLE1=Cahaphi
TTITLE2=Soft Summer Rain
TTITLE3=How Insensitive
TTITLE4=I'll Close My Eyes
TTITLE5=Brother
TTITLE6=Extro
EXTD=YEAR: 2007
EXTT0=
EXTT1=
EXTT2=
EXTT3=
EXTT4=
EXTT5=
EXTT6=
PLAYORDER=
